<svg xmlns="http://www.w3.org/2000/svg" viewBox="0 9.470000267028809 99.0999984741211 35.78999710083008" data-asc="0.9052734375" width="99.0999984741211" height="35.78999710083008"><defs/><g fill="#fd1111"><g transform="translate(0, 0)"><path d="M0 45.26L13.75 9.47L18.85 9.47L33.50 45.26L28.10 45.26L23.93 34.42L8.96 34.42L5.03 45.26L0 45.26M10.33 30.57L22.46 30.57L18.73 20.65Q17.02 16.14 16.19 13.23Q15.50 16.67 14.26 20.07L10.33 30.57ZM37.08 45.26L37.08 9.47L41.82 9.47L41.82 41.04L59.45 41.04L59.45 45.26L37.08 45.26ZM64.94 45.26L64.94 9.47L72.07 9.47L80.54 34.81Q81.71 38.35 82.25 40.11Q82.86 38.16 84.16 34.38L92.72 9.47L99.10 9.47L99.10 45.26L94.53 45.26L94.53 15.31L84.13 45.26L79.86 45.26L69.51 14.79L69.51 45.26L64.94 45.26Z"/></g></g></svg>